<svg fill="#FFFFFF" xmlns="http://www.w3.org/2000/svg"  viewBox="0 0 48 48" width="48px" height="48px"><path d="M 13.5 6 C 9.3754991 6 6 9.3754991 6 13.5 L 6 34.5 C 6 38.624501 9.3754991 42 13.5 42 L 34.5 42 C 38.624501 42 42 38.624501 42 34.5 L 42 13.5 C 42 9.3754991 38.624501 6 34.5 6 L 13.5 6 z M 31.5 12 L 34.5 12 C 35.33 12 36 12.67 36 13.5 C 36 14.33 35.33 15 34.5 15 L 31.5 15 C 30.67 15 30 14.33 30 13.5 C 30 12.67 30.67 12 31.5 12 z M 24 18 C 27.331479 18 30 20.668523 30 24 C 30 27.331477 27.331479 30 24 30 C 20.668521 30 18 27.331477 18 24 C 18 20.668523 20.668521 18 24 18 z M 9 20 L 15.953125 20 C 15.348605 21.207689 15 22.56318 15 24 C 15 28.952794 19.047202 33 24 33 C 28.952798 33 33 28.952794 33 24 C 33 22.56318 32.651395 21.207689 32.046875 20 L 39 20 L 39 34.5 C 39 37.003499 37.003499 39 34.5 39 L 13.5 39 C 10.996501 39 9 37.003499 9 34.5 L 9 20 z"/></svg>